<svg xmlns="http://www.w3.org/2000/svg" xmlns:xlink="http://www.w3.org/1999/xlink" width="500" zoomAndPan="magnify" viewBox="0 0 375 374.999991" height="500" preserveAspectRatio="xMidYMid meet" version="1.0"><defs><g><g id="id1"/><g id="id2"/></g><clipPath id="id3"><path d="M 165.574219 94.15625 L 238.324219 94.15625 L 238.324219 166.90625 L 165.574219 166.90625 Z M 165.574219 94.15625 " clip-rule="nonzero"/></clipPath></defs><g fill="rgb(95.689392%, 95.689392%, 96.078491%)" fill-opacity="1"><g transform="translate(146.529253, 234.99996)"><g><path d="M -1.171875 37.59375 C -7.296875 37.59375 -12.113281 36.71875 -15.625 34.96875 L -15.625 20.796875 C -11 22.097656 -6.179688 22.75 -1.171875 22.75 C 5.273438 22.75 10.175781 20.796875 13.53125 16.890625 C 16.882812 12.984375 18.5625 7.351562 18.5625 0 L 18.5625 -142.78125 L 35.15625 -142.78125 L 35.15625 -1.375 C 35.15625 11 32.03125 20.585938 25.78125 27.390625 C 19.53125 34.191406 10.546875 37.59375 -1.171875 37.59375 Z M -1.171875 37.59375 "/></g></g></g><g fill="rgb(95.689392%, 95.689392%, 96.078491%)" fill-opacity="1"><g transform="translate(147.579559, 220.374959)"><g><path d="M 99.140625 -91.0625 C 99.140625 -78.050781 94.703125 -68.039062 85.828125 -61.03125 C 76.953125 -54.03125 64.25 -50.53125 47.71875 -50.53125 L 32.609375 -50.53125 L 32.609375 0 L 17.671875 0 L 17.671875 -128.5 L 50.984375 -128.5 C 83.085938 -128.5 99.140625 -116.019531 99.140625 -91.0625 Z M 32.609375 -63.375 L 46.0625 -63.375"/></g></g></g></svg>